<svg xmlns="http://www.w3.org/2000/svg" viewBox="0 0 960 720" role="img" aria-labelledby="title desc">
  <title id="title">Secure candidate viewing illustration</title>
  <desc id="desc">A watermarked candidate profile view protected by facility access checks and audit logging.</desc>
  <defs>
    <linearGradient id="bg" x1="0" y1="0" x2="1" y2="1">
      <stop stop-color="#f3f8f7"/>
      <stop offset="1" stop-color="#d2e5e1"/>
    </linearGradient>
    <filter id="shadow" x="-20%" y="-20%" width="140%" height="140%">
      <feDropShadow dx="0" dy="28" stdDeviation="26" flood-color="#0b2f35" flood-opacity="0.18"/>
    </filter>
  </defs>
  <rect width="960" height="720" rx="44" fill="url(#bg)"/>
  <g filter="url(#shadow)">
    <rect x="150" y="92" width="660" height="524" rx="38" fill="#ffffff"/>
    <rect x="150" y="92" width="660" height="82" rx="38" fill="#0b2f35"/>
    <rect x="206" y="128" width="152" height="14" rx="7" fill="#e7f4f1"/>
    <circle cx="744" cy="133" r="18" fill="#2e8b57"/>
    <path d="M735 134l7 7 15-20" fill="none" stroke="#fff" stroke-width="5" stroke-linecap="round" stroke-linejoin="round"/>
    <circle cx="278" cy="276" r="64" fill="#dcefeb"/>
    <circle cx="278" cy="248" r="28" fill="#0b6f72"/>
    <path d="M214 364c14-58 114-58 128 0" fill="#0b6f72"/>
    <rect x="388" y="236" width="224" height="16" rx="8" fill="#719d97"/>
    <rect x="388" y="276" width="298" height="12" rx="6" fill="#c4d8d5"/>
    <rect x="388" y="308" width="240" height="12" rx="6" fill="#c4d8d5"/>
    <rect x="206" y="438" width="222" height="80" rx="20" fill="#f1f7f5"/>
    <rect x="456" y="438" width="222" height="80" rx="20" fill="#f1f7f5"/>
    <path d="M204 214l500 326M132 298l500 326M286 130l500 326" stroke="#0b2f35" stroke-width="18" stroke-linecap="round" opacity="0.06"/>
  </g>
  <g filter="url(#shadow)">
    <rect x="642" y="410" width="190" height="156" rx="28" fill="#0b6f72"/>
    <path d="M696 472v-30c0-27 19-48 43-48s43 21 43 48v30" fill="none" stroke="#e7f4f1" stroke-width="14" stroke-linecap="round"/>
    <rect x="686" y="466" width="106" height="66" rx="18" fill="#e7f4f1"/>
    <circle cx="739" cy="496" r="10" fill="#0b6f72"/>
  </g>
</svg>
