<svg xmlns="http://www.w3.org/2000/svg" viewBox="0 0 960 720" role="img" aria-labelledby="title desc">
  <title id="title">Verification operations illustration</title>
  <desc id="desc">Credential review, regulatory verification, interview scoring, and publication approval in an operations workflow.</desc>
  <defs>
    <linearGradient id="bg" x1="0" y1="0" x2="1" y2="1">
      <stop stop-color="#f7fbf8"/>
      <stop offset="1" stop-color="#d8e7e4"/>
    </linearGradient>
    <filter id="shadow" x="-20%" y="-20%" width="140%" height="140%">
      <feDropShadow dx="0" dy="24" stdDeviation="24" flood-color="#0b2f35" flood-opacity="0.16"/>
    </filter>
  </defs>
  <rect width="960" height="720" rx="44" fill="url(#bg)"/>
  <g stroke="#b8d0cc" stroke-width="10" stroke-linecap="round" fill="none">
    <path d="M238 214h482"/>
    <path d="M238 362h482"/>
    <path d="M238 510h482"/>
  </g>
  <g filter="url(#shadow)">
    <rect x="92" y="128" width="292" height="172" rx="30" fill="#ffffff"/>
    <circle cx="154" cy="214" r="32" fill="#0b6f72"/>
    <path d="M140 215l12 12 27-36" stroke="#fff" stroke-width="8" stroke-linecap="round" stroke-linejoin="round" fill="none"/>
    <rect x="210" y="188" width="112" height="14" rx="7" fill="#739d97"/>
    <rect x="210" y="218" width="88" height="10" rx="5" fill="#c8dbd8"/>
  </g>
  <g filter="url(#shadow)">
    <rect x="576" y="128" width="292" height="172" rx="30" fill="#0b2f35"/>
    <circle cx="638" cy="214" r="32" fill="#2e8b57"/>
    <path d="M624 215l12 12 27-36" stroke="#fff" stroke-width="8" stroke-linecap="round" stroke-linejoin="round" fill="none"/>
    <rect x="694" y="188" width="118" height="14" rx="7" fill="#e7f4f1"/>
    <rect x="694" y="218" width="96" height="10" rx="5" fill="#92b8b3"/>
  </g>
  <g filter="url(#shadow)">
    <rect x="92" y="426" width="292" height="172" rx="30" fill="#ffffff"/>
    <circle cx="154" cy="512" r="32" fill="#bd8b2f"/>
    <path d="M138 512h32M154 496v32" stroke="#fff" stroke-width="8" stroke-linecap="round"/>
    <rect x="210" y="486" width="134" height="14" rx="7" fill="#739d97"/>
    <rect x="210" y="516" width="102" height="10" rx="5" fill="#c8dbd8"/>
  </g>
  <g filter="url(#shadow)">
    <rect x="576" y="426" width="292" height="172" rx="30" fill="#ffffff"/>
    <circle cx="638" cy="512" r="32" fill="#0b6f72"/>
    <path d="M624 513l12 12 27-36" stroke="#fff" stroke-width="8" stroke-linecap="round" stroke-linejoin="round" fill="none"/>
    <rect x="694" y="486" width="112" height="14" rx="7" fill="#739d97"/>
    <rect x="694" y="516" width="132" height="10" rx="5" fill="#c8dbd8"/>
  </g>
  <circle cx="480" cy="362" r="68" fill="#ffffff" filter="url(#shadow)"/>
  <circle cx="480" cy="362" r="42" fill="#e6f5ea"/>
  <path d="M462 365l14 14 34-43" fill="none" stroke="#2e8b57" stroke-width="10" stroke-linecap="round" stroke-linejoin="round"/>
</svg>
