<svg xmlns="http://www.w3.org/2000/svg" viewBox="0 0 960 720" role="img" aria-labelledby="title desc">
  <title id="title">Candidate marketplace interface illustration</title>
  <desc id="desc">A curated candidate catalogue with filters, status badges, and secure profile cards.</desc>
  <defs>
    <linearGradient id="bg" x1="0" y1="0" x2="1" y2="1">
      <stop stop-color="#f7fbf8"/>
      <stop offset="1" stop-color="#f7edda"/>
    </linearGradient>
    <filter id="shadow" x="-20%" y="-20%" width="140%" height="140%">
      <feDropShadow dx="0" dy="24" stdDeviation="24" flood-color="#0b2f35" flood-opacity="0.17"/>
    </filter>
  </defs>
  <rect width="960" height="720" rx="44" fill="url(#bg)"/>
  <g filter="url(#shadow)">
    <rect x="102" y="96" width="756" height="528" rx="38" fill="#ffffff"/>
    <rect x="154" y="150" width="230" height="18" rx="9" fill="#0b2f35"/>
    <rect x="154" y="196" width="574" height="54" rx="27" fill="#f1f7f5"/>
    <rect x="190" y="216" width="190" height="13" rx="7" fill="#9ab8b4"/>
    <rect x="640" y="210" width="70" height="26" rx="13" fill="#d8f0e1"/>
    <rect x="154" y="304" width="300" height="206" rx="28" fill="#f7faf9"/>
    <circle cx="214" cy="376" r="34" fill="#0b6f72"/>
    <rect x="270" y="348" width="132" height="14" rx="7" fill="#719d97"/>
    <rect x="270" y="380" width="86" height="10" rx="5" fill="#c4d8d5"/>
    <rect x="188" y="438" width="92" height="28" rx="14" fill="#e6f5ea"/>
    <rect x="294" y="438" width="112" height="28" rx="14" fill="#fff4dc"/>
    <rect x="506" y="304" width="300" height="206" rx="28" fill="#f7faf9"/>
    <circle cx="566" cy="376" r="34" fill="#2e8b57"/>
    <rect x="622" y="348" width="154" height="14" rx="7" fill="#719d97"/>
    <rect x="622" y="380" width="104" height="10" rx="5" fill="#c4d8d5"/>
    <rect x="540" y="438" width="92" height="28" rx="14" fill="#e6f5ea"/>
    <rect x="646" y="438" width="112" height="28" rx="14" fill="#fff4dc"/>
    <rect x="154" y="548" width="652" height="20" rx="10" fill="#e4efed"/>
  </g>
</svg>
