<svg xmlns="http://www.w3.org/2000/svg" viewBox="0 0 960 720" role="img" aria-labelledby="title desc">
  <title id="title">Recommendation package illustration</title>
  <desc id="desc">Afyalink recommendation package with shortlisted candidates and rationale shared to a facility.</desc>
  <defs>
    <linearGradient id="bg" x1="0" y1="0" x2="1" y2="1">
      <stop stop-color="#fbf7ee"/>
      <stop offset="1" stop-color="#dcefeb"/>
    </linearGradient>
    <linearGradient id="deep" x1="0" y1="0" x2="1" y2="1">
      <stop stop-color="#0b2f35"/>
      <stop offset="1" stop-color="#0e5960"/>
    </linearGradient>
    <filter id="shadow" x="-20%" y="-20%" width="140%" height="140%">
      <feDropShadow dx="0" dy="24" stdDeviation="24" flood-color="#0b2f35" flood-opacity="0.16"/>
    </filter>
  </defs>
  <rect width="960" height="720" rx="44" fill="url(#bg)"/>
  <g filter="url(#shadow)">
    <rect x="150" y="94" width="410" height="532" rx="38" fill="#ffffff"/>
    <rect x="202" y="154" width="182" height="18" rx="9" fill="#0b2f35"/>
    <rect x="202" y="204" width="282" height="12" rx="6" fill="#c4d8d5"/>
    <rect x="202" y="236" width="218" height="12" rx="6" fill="#c4d8d5"/>
    <rect x="202" y="304" width="270" height="82" rx="22" fill="#f1f7f5"/>
    <circle cx="248" cy="345" r="22" fill="#0b6f72"/>
    <rect x="288" y="329" width="108" height="12" rx="6" fill="#719d97"/>
    <rect x="288" y="355" width="82" height="10" rx="5" fill="#c4d8d5"/>
    <rect x="202" y="412" width="270" height="82" rx="22" fill="#f1f7f5"/>
    <circle cx="248" cy="453" r="22" fill="#2e8b57"/>
    <rect x="288" y="437" width="128" height="12" rx="6" fill="#719d97"/>
    <rect x="288" y="463" width="92" height="10" rx="5" fill="#c4d8d5"/>
    <rect x="202" y="532" width="136" height="34" rx="17" fill="#e6f5ea"/>
  </g>
  <g filter="url(#shadow)">
    <rect x="502" y="162" width="318" height="396" rx="34" fill="url(#deep)"/>
    <path d="M556 248h210M556 304h210M556 360h164" stroke="#a3c8c3" stroke-width="14" stroke-linecap="round"/>
    <rect x="556" y="430" width="152" height="42" rx="21" fill="#d8f0e1"/>
    <circle cx="754" cy="456" r="34" fill="#d0a24d"/>
    <path d="M740 457l11 11 25-33" stroke="#fff" stroke-width="8" stroke-linecap="round" stroke-linejoin="round" fill="none"/>
  </g>
</svg>
