<svg xmlns="http://www.w3.org/2000/svg" viewBox="0 0 1200 900" role="img" aria-labelledby="title desc">
  <title id="title">Afyalink healthcare trust platform illustration</title>
  <desc id="desc">A composed healthcare verification workspace with a clinician profile, trust checks, facility access, and secure audit signals.</desc>
  <defs>
    <linearGradient id="heroBg" x1="0" y1="0" x2="1" y2="1">
      <stop offset="0" stop-color="#f7fbf8"/>
      <stop offset="0.52" stop-color="#dcefeb"/>
      <stop offset="1" stop-color="#b6d8d2"/>
    </linearGradient>
    <linearGradient id="deepPanel" x1="0" y1="0" x2="1" y2="1">
      <stop offset="0" stop-color="#0b2f35"/>
      <stop offset="1" stop-color="#0e5960"/>
    </linearGradient>
    <linearGradient id="greenPanel" x1="0" y1="0" x2="1" y2="1">
      <stop offset="0" stop-color="#1c7455"/>
      <stop offset="1" stop-color="#52a571"/>
    </linearGradient>
    <filter id="softShadow" x="-20%" y="-20%" width="140%" height="140%">
      <feDropShadow dx="0" dy="28" stdDeviation="26" flood-color="#0b2f35" flood-opacity="0.2"/>
    </filter>
  </defs>
  <rect width="1200" height="900" rx="58" fill="url(#heroBg)"/>
  <path d="M70 680C210 525 336 616 477 479C629 333 713 198 926 226C1051 243 1128 330 1160 424V830H70Z" fill="#ffffff" opacity="0.42"/>
  <g opacity="0.34" stroke="#5a8886" stroke-width="1">
    <path d="M92 162H1110"/>
    <path d="M92 258H1110"/>
    <path d="M92 354H1110"/>
    <path d="M92 450H1110"/>
    <path d="M92 546H1110"/>
    <path d="M92 642H1110"/>
    <path d="M210 86V814"/>
    <path d="M360 86V814"/>
    <path d="M510 86V814"/>
    <path d="M660 86V814"/>
    <path d="M810 86V814"/>
    <path d="M960 86V814"/>
  </g>
  <g filter="url(#softShadow)">
    <rect x="88" y="126" width="436" height="610" rx="38" fill="#ffffff"/>
    <rect x="124" y="170" width="190" height="18" rx="9" fill="#d8e8e5"/>
    <rect x="124" y="210" width="330" height="16" rx="8" fill="#edf4f2"/>
    <circle cx="215" cy="324" r="75" fill="#dbece8"/>
    <circle cx="215" cy="292" r="34" fill="#0b6f72"/>
    <path d="M132 432c14-70 151-70 166 0" fill="#0b6f72"/>
    <rect x="338" y="284" width="106" height="106" rx="28" fill="url(#greenPanel)"/>
    <path d="M367 337l20 20 38-47" fill="none" stroke="#fff" stroke-width="14" stroke-linecap="round" stroke-linejoin="round"/>
    <rect x="124" y="504" width="332" height="58" rx="17" fill="#f3f8f7"/>
    <rect x="150" y="526" width="144" height="14" rx="7" fill="#97b7b2"/>
    <rect x="124" y="584" width="332" height="58" rx="17" fill="#f3f8f7"/>
    <rect x="150" y="606" width="186" height="14" rx="7" fill="#97b7b2"/>
    <rect x="124" y="664" width="206" height="24" rx="12" fill="#d9ede5"/>
  </g>
  <g filter="url(#softShadow)">
    <rect x="595" y="102" width="442" height="268" rx="34" fill="url(#deepPanel)"/>
    <rect x="639" y="147" width="166" height="16" rx="8" fill="#7fb8b3"/>
    <rect x="639" y="187" width="278" height="18" rx="9" fill="#eef7f5"/>
    <rect x="639" y="228" width="228" height="12" rx="6" fill="#a9c9c6"/>
    <rect x="639" y="276" width="116" height="42" rx="21" fill="#d8f0e1"/>
    <path d="M972 140l23 23-23 23-23-23z" fill="#d0a24d"/>
    <circle cx="924" cy="297" r="35" fill="#1f7d60"/>
    <path d="M907 298l13 13 25-31" fill="none" stroke="#fff" stroke-width="9" stroke-linecap="round" stroke-linejoin="round"/>
  </g>
  <g filter="url(#softShadow)">
    <rect x="635" y="430" width="470" height="298" rx="36" fill="#ffffff"/>
    <rect x="676" y="478" width="146" height="16" rx="8" fill="#c9dedb"/>
    <rect x="676" y="518" width="358" height="76" rx="20" fill="#f3f8f7"/>
    <circle cx="720" cy="556" r="22" fill="#0b6f72"/>
    <rect x="760" y="540" width="182" height="12" rx="6" fill="#88aaa5"/>
    <rect x="760" y="566" width="118" height="10" rx="5" fill="#c4d8d5"/>
    <rect x="676" y="616" width="358" height="76" rx="20" fill="#f3f8f7"/>
    <circle cx="720" cy="654" r="22" fill="#2e8b57"/>
    <rect x="760" y="638" width="216" height="12" rx="6" fill="#88aaa5"/>
    <rect x="760" y="664" width="154" height="10" rx="5" fill="#c4d8d5"/>
    <path d="M1012 466c31 40 46 84 46 132 0 48-15 92-46 132" fill="none" stroke="#d0a24d" stroke-width="11" stroke-linecap="round"/>
  </g>
  <g filter="url(#softShadow)">
    <rect x="493" y="646" width="304" height="120" rx="30" fill="#12383d"/>
    <rect x="531" y="686" width="166" height="14" rx="7" fill="#9ec7c1"/>
    <rect x="531" y="716" width="98" height="12" rx="6" fill="#e9f4f2"/>
    <circle cx="734" cy="706" r="32" fill="#d0a24d"/>
    <path d="M723 707l9 9 18-23" fill="none" stroke="#fff" stroke-width="7" stroke-linecap="round" stroke-linejoin="round"/>
  </g>
</svg>
